<svg xmlns="http://www.w3.org/2000/svg" viewBox="0 0 100 100">
  <rect width="100" height="100" rx="0" fill="#0a0a0a"/>
  <!-- Skull -->
  <ellipse cx="50" cy="48" rx="22" ry="25" fill="#1a1a1a" stroke="#808080" stroke-width="2"/>
  <ellipse cx="42" cy="42" rx="5" ry="6" fill="#0a0a0a" stroke="#606060" stroke-width="1.5"/>
  <ellipse cx="58" cy="42" rx="5" ry="6" fill="#0a0a0a" stroke="#606060" stroke-width="1.5"/>
  <ellipse cx="42" cy="42" rx="3" ry="4" fill="#ff6f00"/>
  <ellipse cx="58" cy="42" rx="3" ry="4" fill="#ff6f00"/>
  <path d="M47,52 Q50,48 53,52 Q51,55 49,55Z" fill="#0a0a0a" stroke="#606060" stroke-width="1"/>
  <path d="M38,56 Q50,62 62,56" fill="none" stroke="#808080" stroke-width="1.5"/>
  <rect x="40" y="56" width="4" height="4" rx="1" fill="#c0c0c0"/>
  <rect x="46" y="56" width="4" height="4" rx="1" fill="#c0c0c0"/>
  <rect x="52" y="56" width="4" height="4" rx="1" fill="#c0c0c0"/>
  <!-- Crossed pistons -->
  <line x1="25" y1="22" x2="75" y2="78" stroke="#808080" stroke-width="3" stroke-linecap="round"/>
  <line x1="75" y1="22" x2="25" y2="78" stroke="#808080" stroke-width="3" stroke-linecap="round"/>
</svg>
